<svg width="377" height="144" viewBox="0 0 377 144" fill="none" xmlns="http://www.w3.org/2000/svg">
<g clip-path="url(#clip0_309_913)">
<path d="M377.001 59.5887H370.729V47.4421H368.169L360.834 59.5887H353.61L361.601 46.7652C360.995 46.6175 360.401 46.3837 359.832 46.0514C358.335 45.2146 357.148 43.947 356.27 42.261C355.404 40.5873 354.971 38.7167 354.971 36.6861C354.971 34.6555 355.354 32.9941 356.121 31.4435C356.888 29.8928 357.989 28.6622 359.399 27.7638C360.426 27.1115 361.613 26.6562 362.974 26.3977C364.334 26.1393 366.202 26.0039 368.589 26.0039H377.001V59.5887ZM370.729 41.498V31.9603H368.54C366.796 31.9603 365.398 32.0711 364.322 32.3049C363.37 32.5634 362.628 33.0925 362.083 33.9048C361.539 34.717 361.267 35.6892 361.267 36.8092C361.267 37.8183 361.527 38.7044 362.083 39.4551C362.628 40.2181 363.357 40.7227 364.273 40.9811C365.423 41.3257 366.932 41.4857 368.8 41.4857H370.717L370.729 41.498ZM342.998 26.0039H349.355V59.5887H343.134V36.3169C343.134 36.3169 338.248 44.0701 328.476 59.6011H322.118V26.0162H328.34V49.2758C328.34 49.2758 333.226 41.5226 342.998 26.0162V26.0039ZM302.216 40.8457H304.047C305.952 40.8457 307.387 40.6981 308.339 40.4027C309.23 40.1566 309.935 39.6766 310.442 38.9751C310.949 38.2736 311.209 37.4491 311.209 36.4892C311.209 35.4185 310.949 34.5078 310.43 33.7571C309.91 32.9941 309.193 32.5018 308.29 32.2434C307.399 32.0342 306.076 31.9357 304.319 31.9357H302.229V40.8334L302.216 40.8457ZM295.945 59.5764V26.0162H304.307C306.62 26.0162 308.426 26.1393 309.749 26.3977C311.073 26.6562 312.235 27.0992 313.237 27.7269C314.61 28.6129 315.662 29.8067 316.404 31.3081C317.146 32.7972 317.53 34.4955 317.53 36.3661C317.53 38.3598 317.109 40.1812 316.268 41.7933C315.427 43.4178 314.276 44.6485 312.829 45.4607C311.914 45.9653 310.813 46.3222 309.551 46.5191C308.29 46.7283 306.521 46.8268 304.245 46.8268H302.241V59.5887H295.97L295.945 59.5764ZM272.172 44.9438H279.408C279.408 44.9438 278.196 41.5472 275.796 34.7662C275.796 34.7662 274.596 38.1629 272.184 44.9438H272.172ZM259.234 59.5764C259.234 59.5764 263.922 48.3774 273.31 25.9916H278.233C278.233 25.9916 282.958 37.1907 292.395 59.5764H285.506C285.506 59.5764 284.306 56.6844 281.894 50.9003H269.883C269.883 50.9003 268.634 53.7923 266.136 59.5764H259.221H259.234ZM246.654 25.9916H252.901V53.6323H257.922V66.1728H253.556C253.556 66.1728 253.123 63.9699 252.257 59.5764H229.412V26.0162H235.683V53.6569H246.667V26.0162L246.654 25.9916ZM216.572 25.9916H222.93V59.5764H216.708V36.3169C216.708 36.3169 211.823 44.0701 202.051 59.6011H195.693V26.0162H201.915V49.2758C201.915 49.2758 206.801 41.5226 216.572 26.0162V25.9916ZM201.222 16.9832H206.479C206.479 18.2138 206.714 19.0999 207.172 19.6291C207.642 20.1706 208.347 20.4413 209.312 20.4413C210.276 20.4413 210.994 20.1706 211.464 19.6291C211.922 19.0876 212.144 18.2015 212.144 16.9832H217.389C217.03 19.0876 216.127 20.6751 214.68 21.7581C213.233 22.8534 211.439 23.3949 209.312 23.3949C207.184 23.3949 205.403 22.8534 203.931 21.7581C202.471 20.6751 201.569 19.0753 201.21 16.9832H201.222ZM171.759 59.5764V26.0162H189.892V31.9726H178.018V39.8735H189.397V45.8176H178.018V53.6569H189.892V59.6011H171.759V59.5764ZM151.214 38.9382H153.217C155.122 38.9382 156.495 38.6798 157.349 38.126C158.19 37.5845 158.623 36.7107 158.623 35.4923C158.623 33.2156 157.015 32.0711 153.774 32.0711H151.214V38.9259V38.9382ZM151.214 53.6323H154.318C156.508 53.6323 158.091 53.2877 159.093 52.6232C160.095 51.9463 160.589 50.8756 160.589 49.3865C160.589 47.8974 160.058 46.8144 159.006 46.1007C157.955 45.3869 156.347 45.03 154.182 45.03H151.214V53.62V53.6323ZM144.942 59.5764V26.0162H151.906C154.479 26.0162 156.409 26.1393 157.72 26.3854C159.019 26.6316 160.181 27.0869 161.22 27.7761C162.383 28.5637 163.274 29.5852 163.917 30.8281C164.56 32.0834 164.882 33.4617 164.882 34.9632C164.882 36.5507 164.597 37.8183 164.016 38.7905C163.447 39.7627 162.482 40.5996 161.134 41.2888C162.259 41.7564 163.125 42.1872 163.731 42.6056C164.337 43.0117 164.869 43.5532 165.352 44.2054C166.366 45.5961 166.885 47.3929 166.885 49.5958C166.885 51.3679 166.477 52.9801 165.673 54.4323C164.869 55.8844 163.744 57.029 162.284 57.8658C160.28 59.0226 157.497 59.6011 153.96 59.6011H144.955L144.942 59.5764ZM138.498 59.5764H104.087V26.0162H110.358V53.6569H118.163V26.0162H124.434V53.6569H132.239V26.0162H138.51V59.6011L138.498 59.5764Z" fill="white"/>
<path d="M374.155 133.429H376.975C376.455 134.425 375.973 135.201 375.528 135.767C375.095 136.321 374.563 136.837 373.945 137.293C372.262 138.61 370.259 139.274 367.946 139.274C366.078 139.274 364.383 138.843 362.849 138.007C361.316 137.157 360.116 136.001 359.225 134.524C358.347 133.047 357.914 131.41 357.914 129.626C357.914 127.841 358.347 126.254 359.225 124.789C360.091 123.337 361.291 122.18 362.8 121.331C364.321 120.482 365.979 120.064 367.785 120.064C369.863 120.064 371.73 120.605 373.363 121.688C375.008 122.771 376.196 124.235 376.95 126.069H374.155C373.437 124.863 372.534 123.94 371.434 123.3C370.333 122.648 369.108 122.328 367.748 122.328C365.694 122.328 363.975 123.042 362.553 124.457C361.142 125.872 360.437 127.608 360.437 129.675C360.437 131.743 361.155 133.441 362.577 134.856C364.012 136.259 365.756 136.973 367.834 136.973C369.145 136.973 370.283 136.702 371.236 136.148C372.201 135.607 373.165 134.696 374.13 133.416M342.774 120.494H345.273V128.666C345.273 128.666 348.081 125.934 353.696 120.494H356.925C356.925 120.494 353.869 123.448 347.734 129.367C347.734 129.367 350.802 132.518 356.925 138.831H353.671C353.671 138.831 350.876 135.951 345.285 130.192V138.831H342.787V120.507L342.774 120.494ZM322.736 128.235H336.849C336.429 126.414 335.588 124.974 334.301 123.916C333.015 122.857 331.494 122.328 329.7 122.328C327.906 122.328 326.447 122.869 325.161 123.952C323.874 125.035 323.07 126.463 322.724 128.235H322.736ZM339.336 130.487H322.674C322.773 132.296 323.515 133.835 324.913 135.09C326.311 136.345 327.956 136.985 329.848 136.985C331.246 136.985 332.545 136.604 333.732 135.828C334.92 135.065 335.761 134.056 336.28 132.801H338.878C338.198 134.733 337.035 136.296 335.39 137.49C333.745 138.683 331.914 139.287 329.91 139.287C328.574 139.287 327.3 139.04 326.101 138.536C324.888 138.044 323.849 137.354 322.984 136.493C322.118 135.631 321.437 134.598 320.93 133.392C320.423 132.198 320.176 130.93 320.176 129.601C320.176 127.854 320.596 126.254 321.45 124.789C322.291 123.337 323.441 122.18 324.901 121.343C326.36 120.507 327.968 120.088 329.725 120.088C331.481 120.088 333.225 120.531 334.747 121.43C336.28 122.328 337.443 123.546 338.247 125.072C338.655 125.848 338.94 126.648 339.101 127.448C339.261 128.26 339.348 129.281 339.348 130.5L339.336 130.487ZM319.533 138.831H316.898C316.898 138.831 314.671 133.662 310.231 123.312C310.231 123.312 307.992 128.481 303.527 138.831H300.892C300.892 138.831 303.539 132.715 308.821 120.507H311.629C311.629 120.507 314.263 126.611 319.545 138.831H319.533ZM298.629 138.831H296.13V122.746H285.258V138.831H282.759V120.507H298.629V138.831ZM257.897 138.831V120.507H261.781C261.781 120.507 263.921 125.466 268.213 135.385C268.213 135.385 270.353 130.426 274.645 120.507H278.516V138.831H276.03V123.214C276.03 123.214 273.779 128.42 269.289 138.831H267.137C267.137 138.831 264.886 133.625 260.408 123.214V138.831H257.909H257.897ZM244.699 122.328C242.683 122.328 241.001 123.029 239.665 124.432C238.317 125.835 237.661 127.595 237.661 129.712C237.661 131.829 238.341 133.539 239.714 134.918C241.087 136.296 242.819 136.985 244.897 136.985C246.975 136.985 248.595 136.296 249.894 134.942C251.193 133.589 251.848 131.853 251.848 129.749C251.848 127.644 251.181 125.811 249.832 124.42C248.496 123.029 246.789 122.34 244.699 122.34V122.328ZM244.897 120.051C246.691 120.051 248.299 120.47 249.746 121.307C251.193 122.143 252.318 123.3 253.135 124.765C253.951 126.241 254.359 127.891 254.359 129.712C254.359 132.456 253.469 134.745 251.688 136.554C249.919 138.364 247.668 139.274 244.959 139.274C243.103 139.274 241.421 138.868 239.925 138.031C238.428 137.207 237.24 136.062 236.399 134.598C235.558 133.133 235.125 131.496 235.125 129.687C235.125 126.906 236.041 124.605 237.884 122.783C239.727 120.962 242.064 120.064 244.885 120.064L244.897 120.051ZM220.01 120.494H222.509V128.666C222.509 128.666 225.317 125.934 230.932 120.494H234.161C234.161 120.494 231.105 123.448 224.97 129.367C224.97 129.367 228.038 132.518 234.161 138.831H230.907C230.907 138.831 228.112 135.951 222.521 130.192V138.831H220.023V120.507L220.01 120.494ZM203.955 120.494H206.441V138.819H203.955V124.014C203.955 124.014 200.22 128.949 192.736 138.819H190.238V120.494H192.736V135.299C192.736 135.299 196.472 130.364 203.955 120.494ZM193.206 113.812H195.692C195.692 115.682 196.571 116.63 198.315 116.63C200.059 116.63 200.949 115.695 200.949 113.812H203.436C203.188 115.276 202.619 116.359 201.729 117.085C200.85 117.799 199.712 118.168 198.315 118.168C196.917 118.168 195.791 117.799 194.901 117.085C194.01 116.359 193.441 115.276 193.194 113.812H193.206ZM177.04 122.328C175.024 122.328 173.341 123.029 172.005 124.432C170.67 125.835 170.002 127.595 170.002 129.712C170.002 131.829 170.682 133.539 172.055 134.918C173.428 136.296 175.16 136.985 177.238 136.985C179.316 136.985 180.936 136.296 182.235 134.942C183.534 133.589 184.189 131.853 184.189 129.749C184.189 127.644 183.521 125.811 182.185 124.42C180.849 123.029 179.142 122.34 177.052 122.34L177.04 122.328ZM177.238 120.051C179.031 120.051 180.639 120.47 182.086 121.307C183.534 122.143 184.659 123.3 185.475 124.765C186.292 126.241 186.7 127.891 186.7 129.712C186.7 132.456 185.809 134.745 184.028 136.554C182.26 138.364 180.008 139.274 177.299 139.274C175.444 139.274 173.762 138.868 172.265 138.031C170.769 137.207 169.581 136.062 168.74 134.598C167.899 133.133 167.466 131.496 167.466 129.687C167.466 126.906 168.381 124.605 170.224 122.783C172.067 120.962 174.405 120.064 177.225 120.064L177.238 120.051ZM166.823 138.819H164.188C164.188 138.819 161.962 133.65 157.521 123.3C157.521 123.3 155.282 128.469 150.817 138.819H148.182C148.182 138.819 150.829 132.702 156.111 120.494H158.907C158.907 120.494 161.541 126.598 166.823 138.819ZM143.408 120.494H145.894V138.819H143.408V124.014C143.408 124.014 139.672 128.949 132.189 138.819H129.691V120.494H132.189V135.299C132.189 135.299 135.925 130.364 143.408 120.494ZM114.514 120.494H117.012V128.801C117.012 128.801 119.436 126.032 124.285 120.494H127.415C127.415 120.494 124.792 123.472 119.535 129.417C119.535 129.417 122.158 132.555 127.415 138.831H124.285C124.285 138.831 121.861 135.902 117.012 130.044V138.831H114.514V130.044C114.514 130.044 112.089 132.973 107.24 138.831H104.099C104.099 138.831 106.721 135.693 111.978 129.417C111.978 129.417 109.356 126.438 104.099 120.494H107.24C107.24 120.494 109.665 123.263 114.514 128.801V120.494Z" fill="white"/>
<path fill-rule="evenodd" clip-rule="evenodd" d="M80.2512 41.3626C74.5861 46.3222 69.2674 50.2111 64.5547 53.6693C53.4472 61.8039 45.8896 67.3419 45.1722 79.2794V124.125C48.9695 118.796 54.7088 114.599 61.6851 109.48C67.177 105.468 73.4605 100.853 80.2512 94.5273V41.3626ZM40.1256 31.9357L10.1551 48.1805L5.03425 50.9618V64.7452C11.8249 71.0708 18.1085 75.6858 23.6004 79.6978C30.589 84.8174 36.3283 89.0139 40.1132 94.3673V31.9357H40.1256ZM45.1722 63.9822C48.9695 58.6534 54.7088 54.4569 61.6851 49.3127C67.1522 45.3007 73.4605 40.6734 80.2512 34.3848V26.0162L45.1598 6.97787V63.9822H45.1722ZM5.04662 71.7231C10.7117 76.6827 16.0304 80.5716 20.7184 84.0297C30.4529 91.1676 37.491 96.3118 39.5566 105.517C40.7564 110.846 40.1256 117.664 40.1256 122.968V138.819H8.49762C7.56993 138.819 6.72883 138.437 6.11037 137.834C5.49191 137.231 5.03425 136.382 5.03425 135.459V71.7231H5.04662ZM85.2978 121.602V24.4041C85.2978 23.4318 84.803 22.5212 83.9248 22.0412L43.9724 0.369199C43.5766 0.135373 43.1189 0 42.6489 0C41.2512 0 40.1256 1.18144 40.1256 2.64593V25.9793L1.37298 46.9991C0.494767 47.4667 0 48.3897 0 49.3619V135.459C0 137.81 0.878211 139.951 2.43673 141.489C3.99524 143.04 6.13511 144 8.49762 144H76.7878C79.1503 144 81.3026 143.04 82.8487 141.489C84.3949 139.939 85.2854 137.81 85.2854 135.459V121.59L85.2978 121.602ZM45.2341 138.831C46.1865 127.312 53.6822 121.811 64.5918 113.824C69.2797 110.354 74.5985 106.477 80.2636 101.517V135.471C80.2636 136.394 79.7935 137.231 79.1874 137.847C78.5813 138.462 77.7279 138.831 76.8002 138.831H45.2341Z" fill="#00A351"/>
<path d="M194.468 106.785V73.2H200.739V87.6849C200.739 87.6849 204.227 82.8607 211.203 73.2H218.736C218.736 73.2 214.506 78.701 206.045 89.6908C206.045 89.6908 210.276 95.3888 218.736 106.785H211.203C211.203 106.785 207.715 101.862 200.739 92.0045V106.785H194.468ZM174.566 88.0541H176.397C178.301 88.0541 179.736 87.9064 180.689 87.611C181.579 87.3649 182.284 86.8849 182.804 86.1835C183.311 85.482 183.571 84.6574 183.571 83.6975C183.571 82.6268 183.311 81.7162 182.791 80.9778C182.272 80.2147 181.554 79.7225 180.652 79.464C179.761 79.2548 178.437 79.1564 176.681 79.1564H174.591V88.0541H174.566ZM168.295 106.785V73.2H176.656C178.969 73.2 180.775 73.323 182.099 73.5815C183.422 73.8276 184.585 74.2829 185.587 74.9106C186.96 75.7967 188.011 76.9904 188.753 78.4795C189.495 79.9686 189.867 81.6669 189.867 83.5375C189.867 85.5312 189.446 87.3526 188.605 88.9648C187.764 90.5892 186.613 91.8199 185.166 92.6321C184.251 93.1367 183.15 93.4936 181.888 93.6905C180.627 93.8997 178.858 93.9982 176.582 93.9982H174.578V106.76H168.307L168.295 106.785ZM144.521 92.1522H151.757C151.757 92.1522 150.545 88.7555 148.145 81.9746C148.145 81.9746 146.946 85.3712 144.534 92.1522H144.521ZM131.583 106.785C131.583 106.785 136.271 95.5857 145.659 73.2H150.582C150.582 73.2 155.307 84.399 164.745 106.785H157.855C157.855 106.785 156.655 103.893 154.243 98.1086H142.233C142.233 98.1086 140.984 101.001 138.485 106.785H131.571H131.583ZM104.111 106.785V73.2H128.058V106.785H121.787V79.1564H110.37V106.785H104.099H104.111Z" fill="white"/>
</g>
<defs>
<clipPath id="clip0_309_913">
<rect width="377" height="144" fill="white"/>
</clipPath>
</defs>
</svg>
