<svg width="562" height="216" viewBox="0 0 562 216" fill="none" xmlns="http://www.w3.org/2000/svg">
<g clip-path="url(#clip0_134_245)">
<path d="M562.001 89.3832H552.652V71.1633H548.835L537.901 89.3832H527.133L539.044 70.148C538.141 69.9264 537.255 69.5757 536.407 69.0773C534.176 67.822 532.406 65.9206 531.097 63.3916C529.806 60.8811 529.161 58.0751 529.161 55.0292C529.161 51.9834 529.732 49.4913 530.876 47.1653C532.019 44.8393 533.66 42.9934 535.762 41.6458C537.292 40.6674 539.063 39.9844 541.091 39.5967C543.119 39.2091 545.903 39.006 549.462 39.006H562.001V89.3832ZM552.652 62.2471V47.9406H549.388C546.788 47.9406 544.705 48.1068 543.101 48.4575C541.681 48.8452 540.575 49.6389 539.763 50.8573C538.952 52.0757 538.546 53.534 538.546 55.2139C538.546 56.7276 538.933 58.0567 539.763 59.1827C540.575 60.3273 541.662 61.0841 543.027 61.4718C544.742 61.9887 546.991 62.2286 549.776 62.2286H552.634L552.652 62.2471ZM511.312 39.006H520.79V89.3832H511.515V54.4755C511.515 54.4755 504.231 66.1052 489.665 89.4017H480.187V39.0245H489.462V73.9138C489.462 73.9138 496.745 62.284 511.312 39.0245V39.006ZM450.519 61.2687H453.248C456.087 61.2687 458.226 61.0472 459.646 60.6042C460.974 60.235 462.025 59.515 462.781 58.4628C463.537 57.4106 463.924 56.1738 463.924 54.7339C463.924 53.1279 463.537 51.7618 462.762 50.6358C461.988 49.4913 460.918 48.7529 459.572 48.3652C458.245 48.0514 456.272 47.9037 453.653 47.9037H450.537V61.2503L450.519 61.2687ZM441.17 89.3648V39.0245H453.635C457.083 39.0245 459.775 39.2091 461.748 39.5967C463.721 39.9844 465.454 40.6489 466.948 41.5904C468.995 42.9195 470.562 44.7101 471.668 46.9622C472.775 49.1959 473.346 51.7434 473.346 54.5493C473.346 57.5398 472.719 60.2719 471.465 62.6901C470.212 65.1268 468.497 66.9728 466.339 68.1912C464.975 68.9481 463.334 69.4834 461.453 69.7788C459.572 70.0926 456.936 70.2403 453.543 70.2403H450.556V89.3832H441.207L441.17 89.3648ZM405.731 67.4159H416.517C416.517 67.4159 414.71 62.3209 411.133 52.1495C411.133 52.1495 409.345 57.2444 405.749 67.4159H405.731ZM386.444 89.3648C386.444 89.3648 393.432 72.5662 407.427 38.9875H414.766C414.766 38.9875 421.809 55.7861 435.878 89.3648H425.608C425.608 89.3648 423.819 85.0267 420.224 76.3505H402.319C402.319 76.3505 400.457 80.6886 396.732 89.3648H386.425H386.444ZM367.691 38.9875H377.003V80.4486H384.489V99.2593H377.98C377.98 99.2593 377.335 95.955 376.044 89.3648H341.987V39.0245H351.336V80.4855H367.71V39.0245L367.691 38.9875ZM322.848 38.9875H332.325V89.3648H323.05V54.4755C323.05 54.4755 315.767 66.1052 301.2 89.4017H291.723V39.0245H300.998V73.9138C300.998 73.9138 308.281 62.284 322.848 39.0245V38.9875ZM299.965 25.4749H307.801C307.801 27.3208 308.152 28.65 308.834 29.4437C309.535 30.256 310.586 30.6621 312.024 30.6621C313.462 30.6621 314.532 30.256 315.232 29.4437C315.915 28.6315 316.247 27.3024 316.247 25.4749H324.065C323.53 28.6315 322.184 31.0128 320.026 32.6373C317.869 34.2803 315.195 35.0925 312.024 35.0925C308.853 35.0925 306.197 34.2803 304.003 32.6373C301.827 31.0128 300.481 28.613 299.947 25.4749H299.965ZM256.043 89.3648V39.0245H283.075V47.9591H265.374V59.8104H282.337V68.7265H265.374V80.4855H283.075V89.4017H256.043V89.3648ZM225.416 58.4074H228.403C231.243 58.4074 233.29 58.0198 234.562 57.1891C235.816 56.3768 236.461 55.0662 236.461 53.2386C236.461 49.8235 234.064 48.1068 229.233 48.1068H225.416V58.389V58.4074ZM225.416 80.4486H230.045C233.308 80.4486 235.668 79.9317 237.162 78.9349C238.656 77.9196 239.393 76.3136 239.393 74.0799C239.393 71.8463 238.6 70.2218 237.033 69.1511C235.466 68.0804 233.069 67.5451 229.842 67.5451H225.416V80.4302V80.4486ZM216.068 89.3648V39.0245H226.449C230.284 39.0245 233.161 39.2091 235.115 39.5783C237.051 39.9475 238.785 40.6305 240.333 41.6642C242.067 42.8457 243.394 44.3779 244.353 46.2423C245.312 48.1252 245.791 50.1927 245.791 52.4449C245.791 54.8262 245.367 56.7276 244.501 58.1859C243.652 59.6442 242.214 60.8995 240.204 61.9333C241.882 62.6348 243.173 63.2809 244.077 63.9085C244.98 64.5177 245.773 65.3299 246.492 66.3083C248.004 68.3943 248.778 71.0894 248.778 74.3937C248.778 77.052 248.17 79.4702 246.971 81.6485C245.773 83.8268 244.095 85.5436 241.919 86.7988C238.932 88.5341 234.783 89.4017 229.51 89.4017H216.086L216.068 89.3648ZM206.461 89.3648H155.164V39.0245H164.513V80.4855H176.148V39.0245H185.496V80.4855H197.131V39.0245H206.48V89.4017L206.461 89.3648Z" fill="white"/>
<path d="M557.759 200.143H561.963C561.188 201.638 560.469 202.801 559.805 203.65C559.16 204.481 558.367 205.256 557.445 205.939C554.938 207.915 551.95 208.911 548.502 208.911C545.718 208.911 543.192 208.265 540.906 207.01C538.619 205.736 536.831 204.001 535.503 201.786C534.194 199.571 533.548 197.116 533.548 194.439C533.548 191.762 534.194 189.381 535.503 187.184C536.794 185.006 538.582 183.271 540.832 181.997C543.1 180.723 545.571 180.095 548.263 180.095C551.36 180.095 554.145 180.908 556.579 182.532C559.031 184.157 560.801 186.353 561.926 189.104H557.759C556.689 187.295 555.343 185.91 553.702 184.95C552.061 183.972 550.236 183.492 548.207 183.492C545.146 183.492 542.583 184.563 540.463 186.686C538.361 188.809 537.31 191.411 537.31 194.513C537.31 197.614 538.379 200.161 540.5 202.284C542.639 204.389 545.239 205.459 548.336 205.459C550.291 205.459 551.987 205.053 553.407 204.223C554.845 203.41 556.284 202.044 557.722 200.124M510.979 180.742H514.704V192.999C514.704 192.999 518.889 188.901 527.261 180.742H532.073C532.073 180.742 527.519 185.172 518.373 194.051C518.373 194.051 522.946 198.777 532.073 208.247H527.224C527.224 208.247 523.057 203.927 514.722 195.288V208.247H510.998V180.76L510.979 180.742ZM481.108 192.353H502.147C501.52 189.621 500.266 187.461 498.348 185.873C496.431 184.286 494.163 183.492 491.489 183.492C488.816 183.492 486.64 184.304 484.722 185.929C482.804 187.553 481.606 189.695 481.09 192.353H481.108ZM505.853 195.731H481.016C481.163 198.445 482.27 200.752 484.353 202.635C486.437 204.518 488.889 205.478 491.71 205.478C493.794 205.478 495.73 204.906 497.5 203.743C499.27 202.598 500.524 201.084 501.299 199.201H505.171C504.157 202.1 502.423 204.444 499.971 206.235C497.519 208.025 494.79 208.93 491.803 208.93C489.811 208.93 487.912 208.561 486.123 207.804C484.316 207.065 482.768 206.032 481.477 204.739C480.186 203.447 479.172 201.897 478.416 200.088C477.66 198.297 477.291 196.396 477.291 194.402C477.291 191.781 477.918 189.381 479.19 187.184C480.444 185.006 482.159 183.271 484.335 182.015C486.511 180.76 488.908 180.132 491.526 180.132C494.144 180.132 496.744 180.797 499.012 182.144C501.299 183.492 503.032 185.32 504.23 187.609C504.839 188.772 505.263 189.972 505.503 191.171C505.742 192.39 505.872 193.922 505.872 195.749L505.853 195.731ZM476.332 208.247H472.405C472.405 208.247 469.086 200.494 462.466 184.969C462.466 184.969 459.129 192.722 452.472 208.247H448.545C448.545 208.247 452.491 199.072 460.364 180.76H464.55C464.55 180.76 468.477 189.916 476.351 208.247H476.332ZM445.171 208.247H441.446V184.12H425.238V208.247H421.513V180.76H445.171V208.247ZM384.451 208.247V180.76H390.241C390.241 180.76 393.431 188.199 399.829 203.078C399.829 203.078 403.019 195.639 409.418 180.76H415.189V208.247H411.483V184.821C411.483 184.821 408.127 192.63 401.433 208.247H398.225C398.225 208.247 394.869 200.438 388.194 184.821V208.247H384.47H384.451ZM364.777 183.492C361.771 183.492 359.264 184.544 357.272 186.649C355.262 188.753 354.285 191.393 354.285 194.568C354.285 197.743 355.299 200.309 357.346 202.377C359.393 204.444 361.974 205.478 365.072 205.478C368.17 205.478 370.585 204.444 372.521 202.414C374.457 200.383 375.435 197.78 375.435 194.623C375.435 191.467 374.439 188.716 372.429 186.63C370.438 184.544 367.893 183.511 364.777 183.511V183.492ZM365.072 180.077C367.746 180.077 370.143 180.705 372.3 181.96C374.457 183.215 376.135 184.95 377.352 187.147C378.569 189.362 379.178 191.836 379.178 194.568C379.178 198.685 377.85 202.118 375.195 204.832C372.558 207.545 369.202 208.911 365.164 208.911C362.398 208.911 359.891 208.302 357.659 207.047C355.428 205.81 353.658 204.093 352.404 201.897C351.151 199.7 350.505 197.245 350.505 194.531C350.505 190.359 351.87 186.907 354.617 184.175C357.364 181.443 360.849 180.095 365.053 180.095L365.072 180.077ZM327.973 180.742H331.697V192.999C331.697 192.999 335.883 188.901 344.254 180.742H349.067C349.067 180.742 344.513 185.172 335.367 194.051C335.367 194.051 339.94 198.777 349.067 208.247H344.217C344.217 208.247 340.05 203.927 331.716 195.288V208.247H327.991V180.76L327.973 180.742ZM304.039 180.742H307.745V208.228H304.039V186.021C304.039 186.021 298.471 193.424 287.315 208.228H283.59V180.742H287.315V202.949C287.315 202.949 292.884 195.546 304.039 180.742ZM288.016 170.718H291.722C291.722 173.524 293.031 174.945 295.631 174.945C298.231 174.945 299.558 173.542 299.558 170.718H303.265C302.896 172.915 302.048 174.539 300.72 175.628C299.411 176.699 297.715 177.253 295.631 177.253C293.547 177.253 291.869 176.699 290.542 175.628C289.214 174.539 288.366 172.915 287.997 170.718H288.016ZM263.916 183.492C260.91 183.492 258.403 184.544 256.411 186.649C254.42 188.753 253.424 191.393 253.424 194.568C253.424 197.743 254.438 200.309 256.485 202.377C258.532 204.444 261.113 205.478 264.211 205.478C267.309 205.478 269.724 204.444 271.66 202.414C273.596 200.383 274.574 197.78 274.574 194.623C274.574 191.467 273.578 188.716 271.587 186.63C269.595 184.544 267.051 183.511 263.934 183.511L263.916 183.492ZM264.211 180.077C266.885 180.077 269.282 180.705 271.439 181.96C273.596 183.215 275.274 184.95 276.491 187.147C277.708 189.362 278.317 191.836 278.317 194.568C278.317 198.685 276.989 202.118 274.334 204.832C271.697 207.545 268.341 208.911 264.303 208.911C261.537 208.911 259.03 208.302 256.799 207.047C254.567 205.81 252.797 204.093 251.543 201.897C250.29 199.7 249.644 197.245 249.644 194.531C249.644 190.359 251.009 186.907 253.756 184.175C256.504 181.443 259.988 180.095 264.193 180.095L264.211 180.077ZM248.685 208.228H244.758C244.758 208.228 241.439 200.475 234.819 184.95C234.819 184.95 231.482 192.704 224.825 208.228H220.898C220.898 208.228 224.844 199.054 232.717 180.742H236.885C236.885 180.742 240.812 189.898 248.685 208.228ZM213.781 180.742H217.487V208.228H213.781V186.021C213.781 186.021 208.212 193.424 197.056 208.228H193.332V180.742H197.056V202.949C197.056 202.949 202.625 195.546 213.781 180.742ZM170.707 180.742H174.432V193.202C174.432 193.202 178.046 189.049 185.274 180.742H189.939C189.939 180.742 186.03 185.209 178.193 194.125C178.193 194.125 182.102 198.832 189.939 208.247H185.274C185.274 208.247 181.66 203.853 174.432 195.066V208.247H170.707V195.066C170.707 195.066 167.093 199.46 159.865 208.247H155.182C155.182 208.247 159.091 203.54 166.927 194.125C166.927 194.125 163.018 189.658 155.182 180.742H159.865C159.865 180.742 163.479 184.895 170.707 193.202V180.742Z" fill="white"/>
<path fill-rule="evenodd" clip-rule="evenodd" d="M119.632 62.0439C111.187 69.4833 103.258 75.3166 96.2327 80.5039C79.6746 92.7059 68.4084 101.013 67.339 118.919V186.187C72.9997 178.194 81.5554 171.899 91.9549 164.22C100.142 158.202 109.509 151.279 119.632 141.791V62.0439ZM59.8159 47.9036L15.1384 72.2707L7.50464 76.4427V97.1179C17.6276 106.606 26.9946 113.529 35.1815 119.547C45.5995 127.226 54.1551 133.521 59.7974 141.551V47.9036H59.8159ZM67.339 95.9733C72.9997 87.9802 81.5554 81.6853 91.9549 73.9691C100.105 67.9511 109.509 61.0102 119.632 51.5771V39.0244L67.3205 10.4668V95.9733H67.339ZM7.52308 107.585C15.9681 115.024 23.8968 120.857 30.8852 126.045C45.3966 136.751 55.8884 144.468 58.9677 158.276C60.7563 166.269 59.8159 176.496 59.8159 184.452V208.228H12.6675C11.2846 208.228 10.0308 207.656 9.10883 206.752C8.18688 205.847 7.50464 204.573 7.50464 203.189V107.585H7.52308ZM127.155 182.403V36.6061C127.155 35.1478 126.417 33.7817 125.108 33.0618L65.5504 0.553799C64.9603 0.20306 64.2781 0 63.5774 0C61.4938 0 59.8159 1.77216 59.8159 3.96889V38.969L2.04672 70.4986C0.737557 71.2001 0 72.5846 0 74.0429V203.189C0 206.715 1.30916 209.927 3.63247 212.234C5.95577 214.56 9.14571 216 12.6675 216H114.469C117.991 216 121.199 214.56 123.504 212.234C125.809 209.908 127.136 206.715 127.136 203.189V182.384L127.155 182.403ZM67.4311 208.247C68.8509 190.968 80.0249 182.717 96.2881 170.736C103.276 165.53 111.205 159.716 119.65 152.276V203.207C119.65 204.592 118.949 205.847 118.046 206.77C117.142 207.693 115.87 208.247 114.487 208.247H67.4311Z" fill="white"/>
<path d="M289.896 160.177V109.8H299.245V131.527C299.245 131.527 304.445 124.291 314.844 109.8H326.074C326.074 109.8 319.767 118.051 307.155 134.536C307.155 134.536 313.461 143.083 326.074 160.177H314.844C314.844 160.177 309.644 152.793 299.245 138.007V160.177H289.896ZM260.228 132.081H262.957C265.797 132.081 267.936 131.859 269.355 131.416C270.683 131.047 271.734 130.327 272.508 129.275C273.264 128.223 273.652 126.986 273.652 125.546C273.652 123.94 273.265 122.574 272.49 121.467C271.716 120.322 270.646 119.584 269.3 119.196C267.973 118.882 266 118.734 263.381 118.734H260.265V132.081H260.228ZM250.88 160.177V109.8H263.344C266.792 109.8 269.485 109.984 271.457 110.372C273.43 110.741 275.164 111.424 276.657 112.366C278.704 113.695 280.271 115.485 281.378 117.719C282.484 119.953 283.037 122.5 283.037 125.306C283.037 128.297 282.41 131.029 281.156 133.447C279.903 135.884 278.188 137.73 276.03 138.948C274.666 139.705 273.025 140.24 271.144 140.536C269.263 140.849 266.626 140.997 263.234 140.997H260.247V160.14H250.898L250.88 160.177ZM215.44 138.228H226.227C226.227 138.228 224.42 133.133 220.843 122.962C220.843 122.962 219.054 128.057 215.458 138.228H215.44ZM196.153 160.177C196.153 160.177 203.141 143.378 217.136 109.8H224.475C224.475 109.8 231.519 126.598 245.588 160.177H235.317C235.317 160.177 233.529 155.839 229.933 147.163H212.029C212.029 147.163 210.167 151.501 206.442 160.177H196.134H196.153ZM155.2 160.177V109.8H190.898V160.177H181.549V118.734H164.53V160.177H155.182H155.2Z" fill="white"/>
</g>
<defs>
<clipPath id="clip0_134_245">
<rect width="562" height="216" fill="white"/>
</clipPath>
</defs>
</svg>
